<svg id="Layer_1" data-name="Layer 1" xmlns="http://www.w3.org/2000/svg" viewBox="0 0 735.5 650.56"><defs><style>.cls-1{fill:none;}.cls-1,.cls-2,.cls-3{stroke:#000;stroke-miterlimit:10;}.cls-1,.cls-2{stroke-width:21px;}.cls-3{stroke-width:2px;}</style></defs><path class="cls-1" d="M176.34,191.87c-20.92,57.43-71.54,47.28-99,105.2C62.1,329.39,66.08,364.29,74.6,433.2,90.69,562.66,99.34,602.27,119.53,628a122.12,122.12,0,0,0,24.73,25.87,124.75,124.75,0,0,0,153.84-8c30.57-28.22,37.13-77.6,49.5-176.52C360,366.83,366.29,315,344.14,280.69c-31.55-48.61-74.26-37.13-94.56-85.53C227.41,141.08,266.17,89.84,239.31,68.1a41.21,41.21,0,0,0-49.51,0C165.32,90.39,196.14,137.93,176.34,191.87Z" transform="translate(-56.55 -49.34)"/><path class="cls-1" d="M127.48,640.78c53.09-33.9,125.35-17.57,182.18-4.2" transform="translate(-56.55 -49.34)"/><path class="cls-1" d="M179.87,96.15c21.13,9.38,48.42,9.38,69.55,0" transform="translate(-56.55 -49.34)"/><path class="cls-2" d="M592.93,687.69a37.87,37.87,0,0,0,39.12-10.52,27.23,27.23,0,0,0,0-38,39.49,39.49,0,0,0-51.24,2.1,29.2,29.2,0,0,0,12.12,46.41Z" transform="translate(-56.55 -49.34)"/><path class="cls-2" d="M439,655a35.65,35.65,0,0,0,40.84-13.12,38.12,38.12,0,0,0,0-47.16,36.26,36.26,0,0,0-51.28.06h0c-.81.82-1.58,1.67-2.3,2.56a39.59,39.59,0,0,0,9,55.28h0A40.75,40.75,0,0,0,439,655Z" transform="translate(-56.55 -49.34)"/><path class="cls-3" d="M511.62,584.23a31.57,31.57,0,0,0,31.68,15,25.74,25.74,0,0,0,22.9-26,32.41,32.41,0,0,0-34.51-27.72,27.49,27.49,0,0,0-20.05,38.74Z" transform="translate(-56.55 -49.34)"/><path class="cls-2" d="M537.86,494.24A38.11,38.11,0,0,0,574,523.7a43.32,43.32,0,0,0,44.06-28.24,38.75,38.75,0,0,0-33.78-47.28,44.56,44.56,0,0,0-46.4,42.63h0C537.83,492,537.82,493.11,537.86,494.24Z" transform="translate(-56.55 -49.34)"/><path class="cls-2" d="M533,668.26a29.85,29.85,0,0,0,33.67-10.51,28.44,28.44,0,0,0-42.42-37.9c-.21.25-.43.49-.63.74q-.66.67-1.26,1.38a31.45,31.45,0,0,0,6.82,43.93A30.67,30.67,0,0,0,533,668.26Z" transform="translate(-56.55 -49.34)"/><path class="cls-2" d="M570.28,580.26A27.87,27.87,0,0,0,571.9,616a38.63,38.63,0,0,0,41.46,12.37,28,28,0,0,0,14.43-36.83,28.44,28.44,0,0,0-3.66-6.11C611.63,569.49,582.42,567.15,570.28,580.26Z" transform="translate(-56.55 -49.34)"/><path class="cls-2" d="M459.14,546.23a31.07,31.07,0,0,0,38.12,5.82,37.14,37.14,0,0,0,20.31-39.49,31.56,31.56,0,0,0-43.82-19.8,38.24,38.24,0,0,0-15.56,51.79h0C458.49,545.12,458.81,545.68,459.14,546.23Z" transform="translate(-56.55 -49.34)"/><path class="cls-2" d="M684.15,658.24a39.38,39.38,0,0,0,40-10.52,26.62,26.62,0,0,0,.24-37.64l-.24-.23a40.93,40.93,0,0,0-52.48,2.1,28.86,28.86,0,0,0,12.5,46.29Z" transform="translate(-56.55 -49.34)"/><path class="cls-2" d="M631.31,570.36A50.48,50.48,0,0,0,679.69,558a28.13,28.13,0,0,0,2.75-39.7,27.46,27.46,0,0,0-2.75-2.75,52.34,52.34,0,0,0-63.48,2.34,31.44,31.44,0,0,0,15.1,52.48Z" transform="translate(-56.55 -49.34)"/><path class="cls-2" d="M746.53,684.77a25.63,25.63,0,0,0,29.21-9.38,27.5,27.5,0,0,0,0-33.8,25.87,25.87,0,0,0-36.58-.11c-.63.63-1.22,1.29-1.79,2A28.35,28.35,0,0,0,743.75,683h0A27.61,27.61,0,0,0,746.53,684.77Z" transform="translate(-56.55 -49.34)"/><path class="cls-1" d="M544.67,349.07a97.64,97.64,0,0,0-39.36,58.79,55,55,0,0,0,6,45.2,49.56,49.56,0,0,0,31.44,18.07" transform="translate(-56.55 -49.34)"/><path class="cls-1" d="M309.51,633.48a187.18,187.18,0,0,0,56.94-41.66c15.09-16.34,55.43-66,51.61-127.48-2-34-16.59-53-6.31-85.28A55,55,0,0,1,435,346.22a43.7,43.7,0,0,1,24.73-6.06c22.05,2.22,42.95,31.64,47.55,73" transform="translate(-56.55 -49.34)"/><path class="cls-1" d="M541.7,351.54c1.7-1.48,21.78-18.93,41.46-12.37,24.73,7.92,31.81,48.51,18.93,68.44s-55.56,28-93.8,2.1" transform="translate(-56.55 -49.34)"/></svg>